<?xml version="1.0" encoding="UTF-8"?>
<svg width="938px" height="227px" viewBox="0 0 938 227" version="1.1" xmlns="http://www.w3.org/2000/svg" xmlns:xlink="http://www.w3.org/1999/xlink">
    <title>Group</title>
    <g id="Page-1" stroke="none" stroke-width="1" fill="none" fill-rule="evenodd">
        <g id="Artboard-Copy-79" transform="translate(-424, -1129)" fill-rule="nonzero">
            <g id="Group" transform="translate(424, 1129)">
                <path d="M127.427062,191.08826 L127.427062,95.5441302 L95.5225354,95.5441302 L95.5225354,127.45587 L63.6180086,127.45587 L63.6180086,191.08826 L127.427062,191.08826 Z M-4.54747351e-13,223 L-4.54747351e-13,0 L63.6180086,0 L63.6180086,63.823479 L159.140544,63.823479 L159.140544,95.5441302 L191.045071,95.5441302 L191.045071,191.08826 L159.140544,191.08826 L159.140544,223 L-4.54747351e-13,223 Z" id="Shape" fill="#00bc7d"></path>
                <path d="M214.904477,223 L214.904477,63.823479 L278.522486,63.823479 L278.522486,223 L214.904477,223 Z M214.904477,31.9117395 L214.904477,0 L278.522486,0 L278.522486,31.9117395 L214.904477,31.9117395 Z" id="Shape" fill="#00bc7d"></path>
                <polygon id="Path" fill="#00bc7d" points="366.190946 223 366.190946 191.08826 334.477465 191.08826 334.477465 95.5441302 302.572938 95.5441302 302.572938 63.823479 334.477465 63.823479 334.477465 0 398.095473 0 398.095473 63.823479 430 63.823479 430 95.5441302 398.095473 95.5441302 398.095473 191.08826 430 191.08826 430 223"></polygon>
                <g id="haus" transform="translate(454, 64)" fill="#FFFFFF" fill-opacity="0.96">
                    <path d="M0,158.766234 L0,0 L34.8864409,0 L34.8864409,91.5624444 L29.6534748,91.5624444 C29.6534748,79.5281089 31.1797566,69.3786693 34.2323201,61.1141256 C37.2848837,52.8495819 41.791049,46.5786782 47.750816,42.3014143 C53.710583,38.0241505 61.1966318,35.8855186 70.2089623,35.8855186 L71.7352441,35.8855186 C84.9630196,35.8855186 95.0655515,40.5615104 102.04284,49.913494 C109.020128,59.2654777 112.508772,72.9309731 112.508772,90.9099804 L112.508772,158.766234 L77.622331,158.766234 L77.622331,88.7351005 C77.622331,82.2104608 75.6963088,76.954501 71.8442642,72.9672211 C67.9922197,68.9799413 62.9409538,66.9863014 56.6904665,66.9863014 C50.1492588,66.9863014 44.8799526,69.0886853 40.8825479,73.2934531 C36.8851433,77.498221 34.8864409,83.0804127 34.8864409,90.0400285 L34.8864409,158.766234 L0,158.766234 Z" id="Path"></path>
                    <path d="M205.470737,157.820866 L205.470737,122.386244 L199.509895,122.386244 L199.509895,83.8893716 C199.509895,77.7648691 198.038082,73.1714923 195.094456,70.109241 C192.15083,67.0469898 187.441029,65.5158642 180.965053,65.5158642 C177.727064,65.5158642 173.458807,65.5887749 168.160281,65.7345964 C162.861754,65.8804179 157.416047,66.0991501 151.823158,66.3907931 C146.230269,66.6824361 141.152515,66.974079 136.589895,67.265722 L136.589895,37.7368708 C139.975064,37.4452279 143.948959,37.1535849 148.511579,36.8619419 C153.074199,36.5702989 157.784,36.3515667 162.640982,36.2057452 C167.497965,36.0599237 172.060585,35.987013 176.328842,35.987013 C188.69207,35.987013 199.105146,37.7368708 207.56807,41.2365865 C216.030994,44.7363022 222.470175,50.0223311 226.885614,57.0946733 C231.301053,64.1670154 233.508772,73.244403 233.508772,84.326836 L233.508772,157.820866 L205.470737,157.820866 Z M166.835649,160.883117 C158.151953,160.883117 150.535322,159.351991 143.985754,156.28974 C137.436187,153.227489 132.321637,148.816389 128.642105,143.05644 C124.962573,137.296491 123.122807,130.406426 123.122807,122.386244 C123.122807,113.636955 125.404117,106.455247 129.966737,100.841119 C134.529357,95.2269922 140.931743,91.0710798 149.173895,88.3733823 C157.416047,85.6756848 166.90924,84.326836 177.653474,84.326836 L203.483789,84.326836 L203.483789,103.794005 L177.432702,103.794005 C171.251088,103.794005 166.504491,105.288675 163.192912,108.278015 C159.881333,111.267356 158.225544,115.313902 158.225544,120.417654 C158.225544,125.229763 159.881333,129.130488 163.192912,132.119829 C166.504491,135.109169 171.251088,136.603839 177.432702,136.603839 C181.406596,136.603839 184.975743,135.911187 188.14014,134.525883 C191.304538,133.140579 193.917006,130.77098 195.977544,127.417086 C198.038082,124.063191 199.215532,119.396904 199.509895,113.418223 L207.899228,122.167512 C207.163322,130.479337 205.139579,137.478768 201.828,143.165806 C198.516421,148.852844 193.953801,153.227489 188.14014,156.28974 C182.32648,159.351991 175.224982,160.883117 166.835649,160.883117 Z" id="Shape"></path>
                    <path d="M295.33709,160.883117 C281.602098,160.883117 271.047841,156.428296 263.674318,147.518653 C256.300796,138.60901 252.614035,125.17211 252.614035,107.207953 L252.614035,38.1038961 L287.312963,38.1038961 L287.312963,108.94642 C287.312963,115.320798 289.120199,120.391327 292.734671,124.158005 C296.349142,127.924683 301.192534,129.808022 307.264847,129.808022 C313.481738,129.808022 318.541998,127.852247 322.445628,123.940696 C326.349257,120.029146 328.301072,114.741309 328.301072,108.077187 L328.301072,38.1038961 L363,38.1038961 L363,157.188875 L335.457726,157.188875 L335.457726,106.990645 L337.843277,106.990645 C337.843277,119.01504 336.289054,129.047443 333.180609,137.087852 C330.072163,145.128261 325.481784,151.104241 319.409472,155.015791 C313.337159,158.927342 305.819058,160.883117 296.855168,160.883117 L295.33709,160.883117 Z" id="Path"></path>
                    <path d="M430.848671,163 C413.857672,163 400.56984,159.502224 390.985174,152.506672 C381.400508,145.511121 376.317731,135.673626 375.736842,122.994188 L406.669173,122.994188 C407.250062,126.783445 409.537312,130.171916 413.530922,133.159599 C417.524533,136.147283 423.514949,137.641125 431.502171,137.641125 C437.601504,137.641125 442.647976,136.584505 446.641586,134.471265 C450.635197,132.358026 452.632003,129.333907 452.632003,125.398909 C452.632003,121.901133 451.107169,119.095626 448.057503,116.982386 C445.007836,114.869146 439.562004,113.375305 431.720004,112.500861 L422.353172,111.626417 C407.976173,110.16901 397.193424,106.161142 390.004924,99.602812 C382.816425,93.0444822 379.222175,84.6643941 379.222175,74.4625478 C379.222175,66.0095894 381.327897,58.9411673 385.539341,53.2572814 C389.750785,47.5733956 395.595979,43.2740461 403.074923,40.3592328 C410.553867,37.4444196 419.085672,35.987013 428.670338,35.987013 C444.063892,35.987013 456.480391,39.3754834 465.919835,46.1524242 C475.359278,52.929365 480.296834,62.7304245 480.7325,75.5556027 L449.800169,75.5556027 C449.219281,71.6206049 447.18617,68.3050048 443.700837,65.6088026 C440.215504,62.9126003 435.060115,61.5644992 428.234671,61.5644992 C422.861449,61.5644992 418.577394,62.5846838 415.382506,64.6250531 C412.187617,66.6654224 410.590173,69.4344949 410.590173,72.9322708 C410.590173,76.2843061 411.969784,78.8347676 414.729006,80.5836556 C417.488228,82.3325435 421.990116,83.5713392 428.234671,84.3000425 L437.601504,85.1744864 C452.268947,86.7776337 463.668891,90.8583723 471.801334,97.4167021 C479.933778,103.975032 484,112.792342 484,123.868632 C484,131.884369 481.821667,138.843485 477.465001,144.745982 C473.108334,150.648479 466.93639,155.166439 458.949169,158.299864 C450.961947,161.433288 441.595115,163 430.848671,163 Z" id="Path"></path>
                </g>
            </g>
        </g>
    </g>
</svg>