<svg width="1034" height="227" viewBox="0 0 1034 227" fill="none" xmlns="http://www.w3.org/2000/svg">
<path d="M127.427 191.088V95.5441H95.5225V127.456H63.618V191.088H127.427ZM0 223V0H63.618V63.8235H159.141V95.5441H191.045V191.088H159.141V223H0Z" fill="#00BC7D"/>
<path d="M214.904 223V63.8235H278.522V223H214.904ZM214.904 31.9117V0H278.522V31.9117H214.904Z" fill="#00BC7D"/>
<path d="M366.191 223V191.088H334.477V95.5441H302.573V63.8235H334.477V0H398.095V63.8235H430V95.5441H398.095V191.088H430V223H366.191Z" fill="#00BC7D"/>
<path d="M454 221.935V32H495.735V141.538H489.475C489.475 127.141 491.301 114.999 494.953 105.112C498.605 95.225 503.995 87.723 511.125 82.606C518.255 77.489 527.211 74.9305 537.992 74.9305H539.818C555.643 74.9305 567.729 80.5245 576.076 91.7125C584.423 102.9 588.596 119.249 588.596 140.757V221.935H546.861V138.155C546.861 130.35 544.557 124.062 539.949 119.292C535.34 114.522 529.297 112.137 521.82 112.137C513.995 112.137 507.691 114.652 502.909 119.682C498.126 124.713 495.735 131.391 495.735 139.717V221.935H454Z" fill="white" fill-opacity="0.96"/>
<path d="M699.809 220.804V178.413H692.677V132.358C692.677 125.032 690.917 119.536 687.395 115.873C683.874 112.21 678.239 110.378 670.492 110.378C666.618 110.378 661.512 110.465 655.173 110.64C648.835 110.814 642.32 111.076 635.629 111.425C628.938 111.773 622.863 112.122 617.405 112.471V77.1453C621.455 76.7964 626.209 76.4475 631.667 76.0986C637.126 75.7497 642.76 75.488 648.57 75.3136C654.381 75.1391 659.839 75.0519 664.946 75.0519C679.736 75.0519 692.193 77.1453 702.318 81.3321C712.442 85.5189 720.145 91.8426 725.428 100.303C730.71 108.764 733.351 119.624 733.351 132.882V220.804H699.809ZM653.589 224.467C643.2 224.467 634.088 222.636 626.253 218.972C618.418 215.309 612.299 210.032 607.897 203.141C603.495 196.25 601.294 188.008 601.294 178.413C601.294 167.946 604.023 159.354 609.482 152.638C614.94 145.922 622.599 140.95 632.46 137.723C642.32 134.495 653.677 132.882 666.53 132.882H697.432V156.171H666.266C658.871 156.171 653.192 157.959 649.231 161.535C645.269 165.111 643.288 169.952 643.288 176.058C643.288 181.815 645.269 186.481 649.231 190.057C653.192 193.634 658.871 195.422 666.266 195.422C671.02 195.422 675.29 194.593 679.076 192.936C682.861 191.279 685.987 188.444 688.452 184.431C690.917 180.419 692.325 174.837 692.677 167.684L702.714 178.151C701.833 188.095 699.412 196.468 695.451 203.272C691.489 210.075 686.031 215.309 679.076 218.972C672.121 222.636 663.625 224.467 653.589 224.467Z" fill="white" fill-opacity="0.96"/>
<path d="M807.317 224.467C790.886 224.467 778.26 219.138 769.439 208.479C760.617 197.821 756.207 181.746 756.207 160.255V77.5844H797.718V162.335C797.718 169.96 799.88 176.026 804.204 180.533C808.528 185.039 814.322 187.292 821.587 187.292C829.024 187.292 835.078 184.952 839.748 180.273C844.418 175.593 846.753 169.267 846.753 161.295V77.5844H888.264V220.048H855.314V159.995H858.168C858.168 174.38 856.309 186.382 852.59 196.001C848.872 205.62 843.38 212.769 836.116 217.448C828.851 222.128 819.857 224.467 809.133 224.467H807.317Z" fill="white" fill-opacity="0.96"/>
<path d="M969.432 227C949.106 227 933.209 222.815 921.743 214.447C910.277 206.078 904.196 194.309 903.501 179.14H940.506C941.201 183.673 943.937 187.727 948.715 191.301C953.493 194.876 960.659 196.663 970.214 196.663C977.511 196.663 983.548 195.399 988.326 192.87C993.103 190.342 995.492 186.725 995.492 182.017C995.492 177.833 993.668 174.476 990.02 171.948C986.371 169.42 979.856 167.633 970.475 166.587L959.269 165.541C942.07 163.797 929.17 159.003 920.57 151.157C911.971 143.311 907.671 133.286 907.671 121.081C907.671 110.968 910.19 102.512 915.228 95.7127C920.266 88.9129 927.259 83.7695 936.206 80.2825C945.153 76.7954 955.36 75.0519 966.826 75.0519C985.242 75.0519 1000.1 79.1056 1011.39 87.213C1022.68 95.3204 1028.59 107.046 1029.11 122.389H992.104C991.41 117.681 988.977 113.715 984.808 110.489C980.638 107.263 974.471 105.651 966.305 105.651C959.877 105.651 954.752 106.871 950.93 109.312C947.108 111.753 945.197 115.066 945.197 119.25C945.197 123.26 946.847 126.311 950.148 128.404C953.449 130.496 958.835 131.978 966.305 132.85L977.511 133.896C995.058 135.814 1008.7 140.696 1018.42 148.541C1028.15 156.387 1033.02 166.936 1033.02 180.186C1033.02 189.776 1030.41 198.101 1025.2 205.162C1019.99 212.224 1012.6 217.629 1003.05 221.377C993.494 225.126 982.289 227 969.432 227Z" fill="white" fill-opacity="0.96"/>
</svg>
